<?xml version="1.0" standalone="no"?>
<!DOCTYPE svg PUBLIC "-//W3C//DTD SVG 20010904//EN"
 "http://www.w3.org/TR/2001/REC-SVG-20010904/DTD/svg10.dtd">
<svg version="1.0" xmlns="http://www.w3.org/2000/svg"
 width="420.000000pt" height="420.000000pt" viewBox="0 0 420.000000 420.000000"
 preserveAspectRatio="xMidYMid meet">
<metadata>
Created by potrace 1.11, written by Peter Selinger 2001-2013
</metadata>
<g transform="translate(0.000000,420.000000) scale(0.100000,-0.100000)"
fill="#000000" stroke="none">
<path d="M1530 4196 c-1 0 -23 -88 -50 -195 -27 -107 -51 -195 -52 -195 -2 -1
-23 -11 -48 -21 -200 -84 -435 -258 -610 -450 -211 -233 -396 -582 -455 -861
-2 -11 -10 -50 -19 -89 -36 -172 -52 -455 -32 -605 14 -107 17 -101 -129 -247
l-134 -133 31 -57 c31 -60 51 -97 160 -298 36 -66 87 -160 113 -210 26 -49 51
-94 55 -100 4 -5 29 -50 55 -100 128 -241 165 -305 175 -305 5 0 87 23 183 51
l176 50 58 -47 c200 -163 492 -299 753 -351 136 -27 190 -31 365 -28 105 2
210 6 235 10 60 9 280 67 355 94 148 54 346 165 483 272 l62 49 98 -31 c53
-17 130 -42 171 -55 40 -13 79 -24 85 -24 6 0 22 21 36 47 13 27 55 104 92
172 37 68 68 126 68 127 0 2 24 48 54 101 53 98 87 160 154 283 37 68 46 85
131 242 l52 97 -79 83 c-192 201 -191 200 -187 233 12 86 16 142 16 265 0 173
-14 297 -55 488 -9 43 -62 215 -75 247 -130 307 -240 480 -426 674 -157 163
-331 291 -522 383 -48 24 -90 44 -91 45 -2 1 -8 21 -14 45 -5 24 -11 50 -13
58 -2 8 -11 48 -20 89 -9 41 -18 77 -20 80 -1 3 -6 24 -9 46 -4 22 -9 47 -11
56 -5 15 -60 16 -585 17 -319 0 -580 -1 -580 -2z m1078 -110 c7 -4 12 -14 12
-22 0 -15 39 -190 63 -287 l13 -48 88 -40 c399 -177 730 -521 913 -949 43
-100 104 -295 117 -370 3 -19 8 -46 10 -60 8 -48 18 -126 22 -170 6 -64 6
-297 0 -345 -2 -22 -8 -67 -11 -101 l-7 -60 85 -90 c142 -149 166 -178 157
-189 -9 -11 -32 -54 -100 -180 -64 -119 -120 -224 -148 -275 -71 -129 -227
-418 -236 -437 -13 -26 -2 -28 -196 36 -86 29 -151 45 -160 40 -8 -4 -28 -19
-43 -33 -15 -14 -32 -26 -38 -26 -5 0 -9 -4 -9 -9 0 -8 -117 -89 -204 -141
-110 -66 -344 -161 -435 -176 -14 -3 -34 -7 -43 -10 -10 -3 -30 -7 -45 -10
-16 -3 -39 -7 -53 -9 -126 -24 -357 -23 -525 1 -55 7 -196 43 -217 55 -10 5
-24 9 -32 9 -45 0 -387 168 -426 210 -3 3 -27 21 -55 39 -27 19 -52 37 -55 41
-3 3 -22 19 -42 37 -31 27 -42 30 -65 23 -222 -67 -308 -88 -320 -78 -7 6 -13
14 -13 18 0 4 -108 206 -240 449 -132 244 -240 446 -240 449 1 4 57 63 126
132 l125 125 -6 50 c-15 114 -18 166 -18 280 -1 115 9 261 18 287 2 7 7 31 9
53 33 261 174 590 361 840 70 94 235 262 320 327 132 100 336 217 435 251 11
3 29 60 59 185 l44 181 31 3 c65 6 963 1 974 -6z"/>
<path d="M2029 3512 c-1 -4 -2 -51 -3 -104 -1 -54 -4 -99 -7 -102 -2 -2 -26
-6 -54 -10 -91 -11 -168 -27 -239 -52 -306 -106 -560 -329 -714 -624 -60 -115
-84 -179 -116 -307 -32 -128 -40 -193 -40 -338 0 -139 7 -216 30 -308 3 -12 7
-33 10 -47 7 -38 34 -119 61 -184 13 -32 23 -59 21 -61 -2 -2 -38 -24 -80 -50
-43 -25 -80 -50 -82 -54 -3 -4 1 -18 8 -32 7 -13 23 -43 35 -66 13 -24 26 -43
30 -43 4 0 45 23 91 52 47 29 85 47 88 40 2 -6 26 -41 54 -79 208 -276 509
-455 838 -499 102 -13 266 -8 358 11 198 43 362 115 510 227 85 64 210 193
269 278 26 36 47 66 49 68 1 2 39 -19 84 -47 45 -28 85 -51 89 -51 4 0 23 31
44 70 l37 70 -38 23 c-20 13 -58 36 -84 51 -52 30 -55 37 -33 79 20 38 74 209
81 255 3 20 7 44 9 52 23 86 24 372 1 483 -65 310 -178 529 -376 727 -94 94
-194 169 -300 227 -54 29 -181 82 -210 88 -8 2 -42 10 -75 18 -33 9 -87 19
-120 23 -33 3 -63 8 -67 11 -4 2 -7 36 -7 76 1 40 1 86 0 104 l-1 32 -75 0
c-41 0 -75 -3 -76 -7z m-4 -740 l0 -257 -71 -5 -71 -5 110 -203 110 -203 16
28 c10 15 45 80 78 143 34 63 77 143 97 178 l35 62 -73 0 -73 0 0 261 0 261
51 -5 c28 -3 60 -7 71 -10 11 -3 34 -8 50 -12 78 -19 267 -110 307 -148 7 -6
29 -24 48 -38 150 -113 298 -342 354 -549 65 -241 49 -519 -40 -717 l-19 -42
-100 64 c-55 36 -107 68 -116 73 -9 4 -59 34 -112 66 l-96 60 35 61 c19 34 34
64 34 67 0 3 -99 6 -220 6 -121 0 -220 -1 -220 -3 0 -4 10 -22 114 -215 29
-52 63 -116 76 -142 14 -27 27 -48 30 -48 3 0 20 29 39 64 l34 64 36 -21 c20
-12 38 -25 39 -29 2 -4 7 -8 12 -8 7 0 327 -194 338 -205 7 -6 -119 -154 -173
-203 -146 -134 -341 -227 -517 -249 -159 -20 -359 3 -478 55 -183 79 -303 170
-424 320 l-59 73 24 17 c13 9 69 44 124 78 55 33 137 84 183 112 46 29 87 52
92 52 5 0 23 -27 41 -60 26 -46 36 -57 46 -48 7 6 13 14 13 17 0 7 57 115 150
285 22 41 40 79 40 85 0 6 -74 10 -215 9 -243 -1 -229 6 -179 -81 28 -50 30
-63 7 -71 -10 -3 -105 -59 -211 -125 l-192 -119 -15 35 c-57 137 -84 293 -79
458 4 119 7 141 35 253 84 338 339 621 654 727 83 28 202 54 220 48 7 -2 10
-95 10 -261z"/>
</g>
</svg>
